<?xml version="1.0" encoding="UTF-8" standalone="no"?>
<svg
   xmlns:dc="http://purl.org/dc/elements/1.1/"
   xmlns:cc="http://creativecommons.org/ns#"
   xmlns:rdf="http://www.w3.org/1999/02/22-rdf-syntax-ns#"
   xmlns:svg="http://www.w3.org/2000/svg"
   xmlns="http://www.w3.org/2000/svg"
   xmlns:sodipodi="http://sodipodi.sourceforge.net/DTD/sodipodi-0.dtd"
   xmlns:inkscape="http://www.inkscape.org/namespaces/inkscape"
   role="img"
   viewBox="0 0 128 128"
   version="1.1"
   id="svg6"
   sodipodi:docname="icon.svg"
   inkscape:export-filename="C:\Users\negokaz\workspace\vscode-zenn-editor\docs\images\icon.png"
   inkscape:export-xdpi="96"
   inkscape:export-ydpi="96"
   width="128"
   height="128"
   inkscape:version="1.0.2 (e86c870879, 2021-01-15, custom)">
  <metadata
     id="metadata12">
    <rdf:RDF>
      <cc:Work
         rdf:about="">
        <dc:format>image/svg+xml</dc:format>
        <dc:type
           rdf:resource="http://purl.org/dc/dcmitype/StillImage" />
        <dc:title>Zenn icon</dc:title>
      </cc:Work>
    </rdf:RDF>
  </metadata>
  <defs
     id="defs10" />
  <sodipodi:namedview
     pagecolor="#ffffff"
     bordercolor="#666666"
     borderopacity="1"
     objecttolerance="10"
     gridtolerance="10"
     guidetolerance="10"
     inkscape:pageopacity="0"
     inkscape:pageshadow="2"
     inkscape:window-width="2471"
     inkscape:window-height="1571"
     id="namedview8"
     showgrid="true"
     inkscape:zoom="7.65625"
     inkscape:cx="103.17382"
     inkscape:cy="45.201811"
     inkscape:window-x="-9"
     inkscape:window-y="-9"
     inkscape:window-maximized="1"
     inkscape:current-layer="svg6">
    <inkscape:grid
       type="xygrid"
       id="grid843" />
  </sodipodi:namedview>
  <title
     id="title2">Zenn icon</title>
  <circle
     style="fill:#3ea8ff;fill-opacity:1;stroke-width:30.7889;stroke-miterlimit:10"
     id="path18"
     cx="64.048981"
     cy="64.016327"
     r="64" />
  <path
     d="m 26,100.54904 h 15.88899 c 0.841632,0 1.587626,-0.46864 2.056262,-1.12218 L 87.687796,27.553404 c 0.56109,-0.934087 -0.09243,-2.056261 -1.214624,-2.056261 H 71.425809 c -0.749178,0 -1.402717,0.372981 -1.775714,1.029725 L 25.254006,99.24196 c -0.280559,0.56109 0.09247,1.30708 0.745994,1.30708 z m 54.773026,-1.12218 20.655064,-33.1807 c 0.65353,-1.029726 -0.0925,-2.336805 -1.30708,-2.336805 H 85.166088 c -0.561085,0 -1.122175,0.280558 -1.402717,0.749178 L 62.547232,98.58842 c -0.56109,0.84163 0.09243,1.9638 1.122175,1.9638 h 15.23545 c 0.745995,-0.003 1.491984,-0.37616 1.868169,-1.12536 z"
     id="path4"
     style="fill:#ffffff;stroke-width:3.188" />
</svg>
